<?xml version="1.0" standalone="no"?>
<!DOCTYPE svg PUBLIC "-//W3C//DTD SVG 20010904//EN"
 "http://www.w3.org/TR/2001/REC-SVG-20010904/DTD/svg10.dtd">
<svg version="1.0" xmlns="http://www.w3.org/2000/svg"
 width="840.000000pt" height="684.000000pt" viewBox="0 0 840.000000 684.000000"
 preserveAspectRatio="xMidYMid meet">

<g transform="translate(0.000000,684.000000) scale(0.100000,-0.100000)"
fill="#000000" stroke="none">
<path d="M2307 6430 c-129 -23 -243 -70 -352 -143 -241 -161 -448 -417 -630
-778 l-85 -168 0 -115 c0 -86 3 -116 13 -116 6 0 36 47 65 105 88 172 199 317
332 429 163 138 266 167 453 132 299 -57 655 -346 1101 -891 103 -126 195
-240 203 -253 15 -21 11 -29 -80 -165 -158 -236 -397 -523 -544 -652 -88 -78
-106 -87 -141 -74 -35 13 -54 73 -62 199 -9 135 -27 191 -86 281 -73 111 -165
160 -314 167 -203 10 -365 -65 -456 -209 -93 -147 -97 -408 -9 -585 83 -170
285 -284 500 -284 150 0 299 55 440 161 168 127 397 378 559 614 118 171 202
288 246 344 l42 53 23 -23 c89 -94 1232 -1667 1247 -1717 2 -5 -51 -45 -117
-90 -153 -103 -293 -221 -421 -354 -235 -244 -325 -443 -354 -777 -19 -218 13
-428 91 -590 122 -257 339 -424 642 -493 114 -26 406 -31 527 -9 328 60 660
277 840 548 145 219 212 440 213 698 1 155 -18 263 -72 413 -89 249 -190 440
-430 810 -62 96 -114 179 -116 185 -3 7 43 39 102 72 155 87 530 339 658 441
141 114 368 335 455 444 268 337 373 620 357 964 -10 209 -55 382 -148 568
-97 193 -218 353 -364 480 -407 355 -931 476 -1395 322 -413 -137 -810 -456
-1206 -967 l-88 -114 -87 114 c-331 433 -697 765 -1027 932 -34 17 -104 46
-155 63 -78 26 -110 31 -207 34 -63 2 -137 -1 -163 -6z m2933 -544 c89 -16
210 -63 292 -112 147 -90 355 -280 469 -429 178 -233 318 -528 370 -779 18
-86 20 -125 16 -266 -6 -198 -24 -279 -96 -425 -95 -193 -215 -306 -561 -529
-225 -145 -232 -148 -250 -130 -17 18 -245 332 -620 854 -230 321 -517 705
-689 923 l-133 168 36 52 c149 214 316 400 443 496 204 153 479 220 723 177z
m-268 -3443 c394 -621 518 -910 518 -1210 0 -115 -21 -228 -60 -317 -52 -122
-167 -242 -285 -297 -107 -51 -176 -64 -330 -63 -122 1 -151 4 -228 28 -290
87 -472 278 -542 567 -22 90 -30 305 -16 412 53 393 322 759 731 993 52 30 97
54 100 54 3 0 53 -75 112 -167z"/>
</g>
</svg>
